<svg xmlns="http://www.w3.org/2000/svg" xmlns:xlink="http://www.w3.org/1999/xlink" version="1.1" id="Capa_1" x="0px" y="0px" width="186.094px" height="186.094px" viewBox="0 0 186.094 186.094" enable-background="new 0 0 186.094 186.094" xml:space="preserve" class="svg logo replaced-svg">
<g display="none">
	<rect display="inline" fill="none" stroke="#99989D" stroke-width="0.5" stroke-miterlimit="10" width="500" height="500.011"></rect>
	
		<line display="inline" fill="none" stroke="#99989D" stroke-width="0.5" stroke-miterlimit="10" x1="71.428" y1="0.001" x2="71.428" y2="500.011"></line>
	
		<line display="inline" fill="none" stroke="#99989D" stroke-width="0.5" stroke-miterlimit="10" x1="107.145" y1="0.001" x2="107.145" y2="500.011"></line>
	
		<line display="inline" fill="none" stroke="#99989D" stroke-width="0.5" stroke-miterlimit="10" x1="35.714" y1="0.001" x2="35.714" y2="500.011"></line>
	
		<line display="inline" fill="none" stroke="#99989D" stroke-width="0.5" stroke-miterlimit="10" x1="142.857" y1="0.001" x2="142.857" y2="500.011"></line>
	
		<line display="inline" fill="none" stroke="#99989D" stroke-width="0.5" stroke-miterlimit="10" x1="178.572" y1="0.001" x2="178.572" y2="500.011"></line>
	
		<line display="inline" fill="none" stroke="#99989D" stroke-width="0.5" stroke-miterlimit="10" x1="214.286" y1="0.001" x2="214.286" y2="500.011"></line>
	
		<line display="inline" fill="none" stroke="#99989D" stroke-width="0.5" stroke-miterlimit="10" x1="250" y1="0.001" x2="250" y2="500.011"></line>
	
		<line display="inline" fill="none" stroke="#99989D" stroke-width="0.5" stroke-miterlimit="10" x1="285.714" y1="0.001" x2="285.714" y2="500.011"></line>
	
		<line display="inline" fill="none" stroke="#99989D" stroke-width="0.5" stroke-miterlimit="10" x1="321.428" y1="0.001" x2="321.428" y2="500.011"></line>
	
		<line display="inline" fill="none" stroke="#99989D" stroke-width="0.5" stroke-miterlimit="10" x1="357.142" y1="0.001" x2="357.142" y2="500.011"></line>
	
		<line display="inline" fill="none" stroke="#99989D" stroke-width="0.5" stroke-miterlimit="10" x1="392.856" y1="0.001" x2="392.856" y2="500.011"></line>
	
		<line display="inline" fill="none" stroke="#99989D" stroke-width="0.5" stroke-miterlimit="10" x1="428.572" y1="0.001" x2="428.572" y2="500.011"></line>
	
		<line display="inline" fill="none" stroke="#99989D" stroke-width="0.5" stroke-miterlimit="10" x1="464.286" y1="0.001" x2="464.286" y2="500.011"></line>
	
		<line display="inline" fill="none" stroke="#99989D" stroke-width="0.5" stroke-miterlimit="10" x1="500" y1="428.582" x2="0" y2="428.582"></line>
	
		<line display="inline" fill="none" stroke="#99989D" stroke-width="0.5" stroke-miterlimit="10" x1="500" y1="392.866" x2="0" y2="392.866"></line>
	
		<line display="inline" fill="none" stroke="#99989D" stroke-width="0.5" stroke-miterlimit="10" x1="500" y1="464.296" x2="0" y2="464.296"></line>
	
		<line display="inline" fill="none" stroke="#99989D" stroke-width="0.5" stroke-miterlimit="10" x1="500" y1="357.15" x2="0" y2="357.15"></line>
	
		<line display="inline" fill="none" stroke="#99989D" stroke-width="0.5" stroke-miterlimit="10" x1="500" y1="321.438" x2="0" y2="321.438"></line>
	
		<line display="inline" fill="none" stroke="#99989D" stroke-width="0.5" stroke-miterlimit="10" x1="500" y1="285.721" x2="0" y2="285.721"></line>
	
		<line display="inline" fill="none" stroke="#99989D" stroke-width="0.5" stroke-miterlimit="10" x1="500" y1="250.007" x2="0" y2="250.007"></line>
	
		<line display="inline" fill="none" stroke="#99989D" stroke-width="0.5" stroke-miterlimit="10" x1="500" y1="214.291" x2="0" y2="214.291"></line>
	
		<line display="inline" fill="none" stroke="#99989D" stroke-width="0.5" stroke-miterlimit="10" x1="500" y1="178.577" x2="0" y2="178.577"></line>
	
		<line display="inline" fill="none" stroke="#99989D" stroke-width="0.5" stroke-miterlimit="10" x1="500" y1="142.861" x2="0" y2="142.861"></line>
	
		<line display="inline" fill="none" stroke="#99989D" stroke-width="0.5" stroke-miterlimit="10" x1="500" y1="107.145" x2="0" y2="107.145"></line>
	
		<line display="inline" fill="none" stroke="#99989D" stroke-width="0.5" stroke-miterlimit="10" x1="500" y1="71.43" x2="0" y2="71.43"></line>
	
		<line display="inline" fill="none" stroke="#99989D" stroke-width="0.5" stroke-miterlimit="10" x1="500" y1="35.715" x2="0" y2="35.715"></line>
	<polyline display="inline" fill="none" stroke="#99989D" stroke-width="0.5" stroke-miterlimit="10" points="464.286,0.001    500,71.43 464.286,142.859 500,214.289 464.286,285.721 500,357.15 464.286,428.582 500,500.011  "></polyline>
	<polyline display="inline" fill="none" stroke="#99989D" stroke-width="0.5" stroke-miterlimit="10" points="428.572,0.001    464.286,71.43 428.572,142.859 464.286,214.289 428.572,285.721 464.286,357.15 428.572,428.582 464.286,500.011  "></polyline>
	<polyline display="inline" fill="none" stroke="#99989D" stroke-width="0.5" stroke-miterlimit="10" points="392.856,0.001    428.572,71.43 392.856,142.859 428.572,214.289 392.856,285.721 428.572,357.15 392.856,428.582 428.572,500.011  "></polyline>
	<polyline display="inline" fill="none" stroke="#99989D" stroke-width="0.5" stroke-miterlimit="10" points="357.142,0.001    392.856,71.43 357.142,142.859 392.856,214.289 357.142,285.721 392.856,357.15 357.142,428.582 392.856,500.011  "></polyline>
	<polyline display="inline" fill="none" stroke="#99989D" stroke-width="0.5" stroke-miterlimit="10" points="321.428,0.001    357.142,71.43 321.428,142.859 357.142,214.289 321.428,285.721 357.142,357.15 321.428,428.582 357.142,500.011  "></polyline>
	<polyline display="inline" fill="none" stroke="#99989D" stroke-width="0.5" stroke-miterlimit="10" points="285.714,0.001    321.428,71.43 285.714,142.859 321.428,214.289 285.714,285.721 321.428,357.15 285.714,428.582 321.428,500.011  "></polyline>
	<polyline display="inline" fill="none" stroke="#99989D" stroke-width="0.5" stroke-miterlimit="10" points="250,0.001    285.714,71.43 250,142.859 285.714,214.289 250,285.721 285.714,357.15 250,428.582 285.714,500.011  "></polyline>
	<polyline display="inline" fill="none" stroke="#99989D" stroke-width="0.5" stroke-miterlimit="10" points="214.286,0.001    250,71.43 214.286,142.859 250,214.289 214.286,285.721 250,357.15 214.286,428.582 250,500.011  "></polyline>
	<polyline display="inline" fill="none" stroke="#99989D" stroke-width="0.5" stroke-miterlimit="10" points="178.572,0.001    214.288,71.43 178.572,142.859 214.288,214.289 178.572,285.721 214.288,357.15 178.572,428.582 214.288,500.011  "></polyline>
	<polyline display="inline" fill="none" stroke="#99989D" stroke-width="0.5" stroke-miterlimit="10" points="142.857,0.001    178.572,71.43 142.857,142.859 178.572,214.289 142.857,285.721 178.572,357.15 142.857,428.582 178.572,500.011  "></polyline>
	<polyline display="inline" fill="none" stroke="#99989D" stroke-width="0.5" stroke-miterlimit="10" points="107.143,0.001    142.859,71.43 107.143,142.859 142.859,214.289 107.143,285.721 142.859,357.15 107.143,428.582 142.859,500.011  "></polyline>
	<polyline display="inline" fill="none" stroke="#99989D" stroke-width="0.5" stroke-miterlimit="10" points="71.428,0.001    107.143,71.43 71.428,142.859 107.143,214.289 71.428,285.721 107.143,357.15 71.428,428.582 107.143,500.011  "></polyline>
	<polyline display="inline" fill="none" stroke="#99989D" stroke-width="0.5" stroke-miterlimit="10" points="35.714,0.001    71.429,71.43 35.714,142.859 71.429,214.289 35.714,285.721 71.429,357.15 35.714,428.582 71.429,500.011  "></polyline>
	<polyline display="inline" fill="none" stroke="#99989D" stroke-width="0.5" stroke-miterlimit="10" points="0,0.001 35.715,71.43    0,142.859 35.715,214.289 0,285.721 35.715,357.15 0,428.582 35.715,500.011  "></polyline>
	<polyline display="inline" fill="none" stroke="#99989D" stroke-width="0.5" stroke-miterlimit="10" points="464.286,500.011    500,428.582 464.286,357.15 500,285.721 464.286,214.289 500,142.859 464.286,71.43 500,0.001  "></polyline>
	<polyline display="inline" fill="none" stroke="#99989D" stroke-width="0.5" stroke-miterlimit="10" points="428.572,500.011    464.286,428.582 428.572,357.15 464.286,285.721 428.572,214.289 464.286,142.859 428.572,71.43 464.286,0.001  "></polyline>
	<polyline display="inline" fill="none" stroke="#99989D" stroke-width="0.5" stroke-miterlimit="10" points="392.856,500.011    428.572,428.582 392.856,357.15 428.572,285.721 392.856,214.289 428.572,142.859 392.856,71.43 428.572,0.001  "></polyline>
	<polyline display="inline" fill="none" stroke="#99989D" stroke-width="0.5" stroke-miterlimit="10" points="357.142,500.011    392.856,428.582 357.142,357.15 392.856,285.721 357.142,214.289 392.856,142.859 357.142,71.43 392.856,0.001  "></polyline>
	<polyline display="inline" fill="none" stroke="#99989D" stroke-width="0.5" stroke-miterlimit="10" points="321.428,500.011    357.142,428.582 321.428,357.15 357.142,285.721 321.428,214.289 357.142,142.859 321.428,71.43 357.142,0.001  "></polyline>
	<polyline display="inline" fill="none" stroke="#99989D" stroke-width="0.5" stroke-miterlimit="10" points="285.714,500.011    321.428,428.582 285.714,357.15 321.428,285.721 285.714,214.289 321.428,142.859 285.714,71.43 321.428,0.001  "></polyline>
	<polyline display="inline" fill="none" stroke="#99989D" stroke-width="0.5" stroke-miterlimit="10" points="250,500.011    285.714,428.582 250,357.15 285.714,285.721 250,214.289 285.714,142.859 250,71.43 285.714,0.001  "></polyline>
	<polyline display="inline" fill="none" stroke="#99989D" stroke-width="0.5" stroke-miterlimit="10" points="214.286,500.011    250,428.582 214.286,357.15 250,285.721 214.286,214.289 250,142.859 214.286,71.43 250,0.001  "></polyline>
	<polyline display="inline" fill="none" stroke="#99989D" stroke-width="0.5" stroke-miterlimit="10" points="178.572,500.011    214.288,428.582 178.572,357.15 214.288,285.721 178.572,214.289 214.288,142.859 178.572,71.43 214.288,0.001  "></polyline>
	<polyline display="inline" fill="none" stroke="#99989D" stroke-width="0.5" stroke-miterlimit="10" points="142.857,500.011    178.572,428.582 142.857,357.15 178.572,285.721 142.857,214.289 178.572,142.859 142.857,71.43 178.572,0.001  "></polyline>
	<polyline display="inline" fill="none" stroke="#99989D" stroke-width="0.5" stroke-miterlimit="10" points="107.143,500.011    142.859,428.582 107.143,357.15 142.859,285.721 107.143,214.289 142.859,142.859 107.143,71.43 142.859,0.001  "></polyline>
	<polyline display="inline" fill="none" stroke="#99989D" stroke-width="0.5" stroke-miterlimit="10" points="71.428,500.011    107.143,428.582 71.428,357.15 107.143,285.721 71.428,214.289 107.143,142.859 71.428,71.43 107.143,0.001  "></polyline>
	<polyline display="inline" fill="none" stroke="#99989D" stroke-width="0.5" stroke-miterlimit="10" points="35.714,500.011    71.429,428.582 35.714,357.15 71.429,285.721 35.714,214.289 71.429,142.859 35.714,71.43 71.429,0.001  "></polyline>
	<polyline display="inline" fill="none" stroke="#99989D" stroke-width="0.5" stroke-miterlimit="10" points="0,500.011    35.715,428.582 0,357.15 35.715,285.721 0,214.289 35.715,142.859 0,71.43 35.715,0.001  "></polyline>
</g>
<path fill="#FFFFFF" d="M93.047,0.092c-51.155,0-92.626,41.618-92.626,92.956c0,51.338,41.471,92.955,92.626,92.955  c51.156,0,92.626-41.617,92.626-92.955C185.673,41.709,144.203,0.092,93.047,0.092z M77.003,158.57L22.947,50.296l97.419-0.139  L109.525,71.84H66.162l5.421,10.841h32.521l-10.84,21.683l-10.84-0.003l27.103,54.209H77.003z M114.945,147.729l-16.26-32.523  l32.521-65.048h32.523L114.945,147.729z"></path>
</svg>